<svg width="24" height="24" xmlns="http://www.w3.org/2000/svg" clip-rule="evenodd">

 <g>
  <title>Layer 1</title>
  <path id="svg_1" d="m12,0c-6.627,0 -12,5.373 -12,12s5.373,12 12,12s12,-5.373 12,-12s-5.373,-12 -12,-12zm0,2c5.514,0 10,4.486 10,10s-4.486,10 -10,10s-10,-4.486 -10,-10s4.486,-10 10,-10zm-2.426,14.741l-3.574,0l0,-0.202l1.261,-1.529c0.134,-0.139 0.195,-0.335 0.162,-0.526l0,-5.304c0.015,-0.147 -0.041,-0.293 -0.151,-0.392l-1.121,-1.35l0,-0.201l3.479,0l2.689,5.897l2.364,-5.897l3.317,0l0,0.201l-0.958,0.919c-0.083,0.063 -0.124,0.166 -0.106,0.269l0,6.748c-0.018,0.103 0.023,0.206 0.106,0.269l0.936,0.919l0,0.201l-4.706,0l0,-0.201l0.969,-0.941c0.095,-0.095 0.095,-0.123 0.095,-0.269l0,-5.455l-2.695,6.844l-0.364,0l-3.137,-6.844l0,4.587c-0.026,0.193 0.038,0.387 0.174,0.526l1.26,1.529l0,0.202z"/>
  <ellipse ry="4.46667" rx="5.6" id="svg_2" cy="6.73333" cx="7.66667" stroke="#000" fill="#fff"/>
  <rect transform="rotate(-0.264231 11.9327 12.0009)" stroke="#ffffff" id="svg_3" height="23.75165" width="23.67794" y="0.1251" x="0.09375" fill="#fff"/>
 </g>
</svg>